<?xml version="1.0" encoding="utf-8"?>
<svg 
version="1.1" 
xmlns="http://www.w3.org/2000/svg" 
xmlns:xlink="http://www.w3.org/1999/xlink" 
x="0px" 
y="0px"
viewBox="0 0 1000 500" 
style="enable-background:new 0 0 1000 500;" 
xml:space="preserve"
>
	<style type="text/css">
		.st0{fill:transparent;}
		.st1{fill:#ffffff;}
	</style>
	<path class="st0" d="M990,500H10c-5.5,0-10-4.5-10-10V10C0,4.5,4.5,0,10,0h980c5.5,0,10,4.5,10,10v480
		C1000,495.5,995.5,500,990,500z"/>
	<path class="st1" d="M499.7,131l-122.6,70.7v142l43.6,25.3l43.6-25.3v-40.8l75.6,43.1l43.6-24.7v-46l39.5-23v-50.6L499.7,131z
		M499.7,140.3l111.2,63.8l-79.1,46l39.6,22.5l-31.6,18.8L468.2,250l79.7-46l-48.1-27.6l-79.1,46L389.1,204L499.7,140.3z M503.7,188
		l28,16.1l-28,16.2L503.7,188L503.7,188z M385.1,339.1V211l31.5,18.3v128.1L385.1,339.1z M456.2,339.1l-31.5,18.3V229.3l71.1-41.3
		v36.8l-39.5,22.8V339.1z M464.2,256.9l71.6,41.3v36.2l-71.6-40.9V256.9z M543.8,334.5v-36.3l31.5-18.8v37.1L543.8,334.5z
		M579.8,268.1l-31.9-18.1l67-38.9v36.7L579.8,268.1z"/>
</svg>
