<?xml version="1.0" encoding="utf-8"?>
<svg 
version="1.1" 
xmlns="http://www.w3.org/2000/svg" 
xmlns:xlink="http://www.w3.org/1999/xlink" 
x="0px" 
y="0px"
viewBox="0 0 1000 500" 
style="enable-background:new 0 0 1000 500;" 
xml:space="preserve"
>
	<style type="text/css">
		.st0{fill:#FFFFFF;}
		.st1{fill:#2c3e50;}
	</style>
	<path class="st0" d="M990,500H10c-5.5,0-10-4.5-10-10V10C0,4.5,4.5,0,10,0h980c5.5,0,10,4.5,10,10v480C1000,495.5,995.5,500,990,500
		z"/>
	<path class="st1" d="M499.7,131l-122.6,70.7v142l43.6,25.3l43.6-25.3v-40.8l75.6,43.1l43.6-24.7v-46l39.5-23v-50.6L499.7,131z
		M499.7,140.3l111.2,63.8l-79.1,46l39.6,22.5l-31.6,18.8L468.2,250l79.7-46l-48.1-27.6l-79.1,46L389.1,204L499.7,140.3z M503.7,188
		l28,16.1l-28,16.2V188L503.7,188z M385.1,339.1V211l31.5,18.3v128.1L385.1,339.1z M456.2,339.1l-31.5,18.3V229.3l71.1-41.3v36.8
		l-39.5,22.8v91.5H456.2z M464.2,256.9l71.6,41.3v36.2l-71.6-40.9L464.2,256.9L464.2,256.9z M543.8,334.5v-36.3l31.5-18.8v37.1
		L543.8,334.5z M579.8,268.1L547.9,250l67-38.9v36.7L579.8,268.1z"/>
	<circle class="st1" cx="702.2" cy="180" r="49"/>
	<path class="st0" d="M673.48,194.55v-29.09h11.48c2.21,0,4.09,0.42,5.64,1.26c1.55,0.84,2.74,2,3.56,3.48
		c0.82,1.48,1.23,3.19,1.23,5.12s-0.42,3.64-1.25,5.11c-0.83,1.48-2.04,2.63-3.62,3.45c-1.58,0.82-3.48,1.24-5.72,1.24h-7.32v-4.93
		h6.32c1.18,0,2.16-0.21,2.93-0.62c0.77-0.41,1.35-0.98,1.73-1.72c0.38-0.73,0.57-1.58,0.57-2.54c0-0.97-0.19-1.81-0.57-2.54
		c-0.38-0.72-0.96-1.29-1.74-1.69c-0.78-0.4-1.76-0.6-2.96-0.6h-4.15v24.06H673.48z"/>
	<path class="st0" d="M699.39,165.45h7.58l8.01,19.55h0.34l8.01-19.55h7.59v29.09h-5.97v-18.93h-0.24l-7.53,18.79h-4.06
		l-7.53-18.86h-0.24v19.01h-5.97V165.45z"/>
</svg>
