<?xml version="1.0" encoding="utf-8"?>
<svg 
version="1.1" 
xmlns="http://www.w3.org/2000/svg" 
xmlns:xlink="http://www.w3.org/1999/xlink" 
x="0px" 
y="0px" 
width="9.821em"
height="6.251em"
viewBox="0 0 374.08 238" 
style="enable-background:new 0 0 374.08 238;" 
xml:space="preserve"
>
	<style type="text/css">
		.st0{fill:#121212;}
		.st1{fill:#121212;}
		.st2{fill:#FFFFFF;}
	</style>
	<path class="st0" d="M122.65,0L0,70.72v141.97L43.56,238l43.56-25.31v-40.83L162.73,215l43.56-24.73v-45.99l39.55-22.98V70.71
		L122.65,0z M122.66,9.25l111.16,63.81l-79.13,45.98l39.62,22.48l-31.6,18.79l-71.58-41.32l79.65-45.97l-48.14-27.6L43.56,91.38
		L12.01,73.05L122.66,9.25z M126.66,56.97l28.04,16.08l-28.04,16.18L126.66,56.97L126.66,56.97z M8.02,208.08V79.99l31.53,18.32
		v128.08L8.02,208.08z M79.1,208.08L47.57,226.4V98.32l71.08-41.3v36.84L79.1,116.69V208.08z M87.11,125.93l71.61,41.33v36.21
		l-71.61-40.85V125.93z M166.74,203.5v-36.26l31.53-18.75v37.12L166.74,203.5z M202.73,137.08l-31.94-18.13L237.82,80v36.69
		L202.73,137.08z"/>
	<circle class="st1" cx="325.08" cy="49" r="49"/>
	<path class="st2" d="M332.83,31.3v22.67c0,7.64-5.79,12.73-14.47,12.73c-8.71,0-14.47-5.1-14.47-12.73V31.3h7.38v22.04
		c0,3.99,2.81,6.87,7.09,6.87c4.29,0,7.09-2.88,7.09-6.87V31.3H332.83z"/>
	<path class="st2" d="M346.28,66.21h-7.38V31.3h7.38V66.21z"/>
</svg>